<?xml version="1.0" encoding="utf-8"?>
<!-- Generator: Adobe Illustrator 25.4.1, SVG Export Plug-In . SVG Version: 6.00 Build 0)  -->
<svg version="1.1" id="Слой_1" xmlns="http://www.w3.org/2000/svg" xmlns:xlink="http://www.w3.org/1999/xlink" x="0px" y="0px"
	 viewBox="0 0 3816.3 2639.8" style="enable-background:new 0 0 3816.3 2639.8;" xml:space="preserve">
<style type="text/css">
	.st0{fill:none;stroke:#66B0F0;stroke-width:6;stroke-miterlimit:10;}
	.st1{fill:none;stroke:#66B0F0;stroke-width:6;stroke-linecap:round;stroke-miterlimit:10;}
	.st2{fill:#66B0F0;}
	.st3{fill:#D0F0E4;}
	.st4{fill:#3FB1B5;}
	.st5{fill:none;stroke:#FFCF2D;stroke-width:6;stroke-linecap:round;stroke-miterlimit:10;}
	.st6{fill:none;stroke:#FFCF2D;stroke-width:6;stroke-miterlimit:10;}
	.st7{fill:#FE5244;}
	.st8{opacity:0.2;}
	.st9{fill:#FFFFFF;}
	.st10{fill:#E57281;}
	.st11{fill:none;stroke:#FFFFFF;stroke-width:6;stroke-miterlimit:10;}
	.st12{fill:none;stroke:#FFFFFF;stroke-width:5;stroke-miterlimit:10;}
	.st13{fill:none;stroke:#FFFFFF;stroke-width:5;stroke-linecap:round;stroke-miterlimit:10;}
	.st14{fill:#FFFFFF;stroke:#FE5244;stroke-width:5;stroke-miterlimit:10;}
	.st15{fill:#FFFFFF;stroke:#9A3B82;stroke-width:6;stroke-linecap:round;stroke-miterlimit:10;}
	.st16{fill:none;stroke:#9A3B82;stroke-width:6;stroke-linecap:round;stroke-miterlimit:10;}
	.st17{fill:#9A3B82;}
	.st18{fill:#FFCF2D;}
	.st19{fill:#FFFFFF;stroke:#FFCF2D;stroke-width:5;stroke-miterlimit:10;}
	.st20{fill:none;stroke:#E57281;stroke-width:4;stroke-linecap:round;stroke-miterlimit:10;}
	.st21{fill:#73325A;}
	.st22{fill:none;stroke:#73325A;stroke-width:4;stroke-linecap:round;stroke-miterlimit:10;}
	.st23{fill:#3FB1B5;stroke:#3FB1B5;stroke-width:5;stroke-linecap:round;stroke-miterlimit:10;}
	.st24{fill:#FFFFFF;stroke:#3FB1B5;stroke-width:5.9997;stroke-miterlimit:9.9995;}
	.st25{fill:#FFFFFF;stroke:#3FB1B5;stroke-width:6;stroke-linecap:round;stroke-miterlimit:10;}
	.st26{fill:#A0505A;}
	.st27{fill:#0096A0;}
	.st28{fill:#FFFFFF;stroke:#FE5244;stroke-width:6;stroke-miterlimit:10;}
	.st29{fill:none;stroke:#FE5244;stroke-width:6;stroke-miterlimit:10;}
	.st30{fill:none;stroke:#FE5244;stroke-width:6;stroke-linejoin:round;stroke-miterlimit:10;}
	.st31{fill:#FE5244;stroke:#FFFFFF;stroke-width:5.9998;stroke-miterlimit:9.9996;}
	.st32{fill:none;stroke:#9A3B82;stroke-width:4;stroke-linecap:round;stroke-miterlimit:10;}
	.st33{fill:none;stroke:#FE5244;stroke-width:5;stroke-miterlimit:10;}
	.st34{fill:#FFFFFF;stroke:#FE5244;stroke-width:5;stroke-linejoin:round;stroke-miterlimit:10;}
	.st35{fill:#FFFFFF;stroke:#3FB1B5;stroke-width:5;stroke-linecap:round;stroke-miterlimit:10;}
</style>
<g id="DOORS">
	<rect x="1266.7" y="3" class="st0" width="1306" height="1234.3"/>
	<rect x="1266.7" y="3" class="st0" width="653" height="1234.3"/>
	<rect x="1919.7" y="3" class="st0" width="653" height="1234.3"/>
	<g>
		<rect x="2054" y="122.4" class="st0" width="398.2" height="398.2"/>
		<line class="st1" x1="2314.1" y1="313.9" x2="2267.8" y2="348.9"/>
		<polyline class="st1" points="2203.3,397.7 2054,510.6 2054,427.6 2452.1,132.4 2452.1,209.6 2344.8,290.7 		"/>
	</g>
	<polygon class="st2" points="1266.7,3 1919.7,3 1919.7,98.5 	"/>
	<path class="st0" d="M2082.8,791.9L2082.8,791.9c-4.5,0-8.7-2.4-11-6.4l-95.5-167c-4.8-8.4,1.3-19,11-19l0,0c4.5,0,8.7,2.4,11,6.4
		l95.5,167C2098.6,781.4,2092.5,791.9,2082.8,791.9z"/>
	<g>
		<rect x="1385.6" y="122.4" class="st0" width="398.2" height="398.2"/>
		<line class="st1" x1="1385.6" y1="427.6" x2="1783.7" y2="132.4"/>
	</g>
	<path class="st0" d="M1754.9,791.9L1754.9,791.9c4.5,0,8.7-2.4,11-6.4l95.5-167c4.8-8.4-1.3-19-11-19l0,0c-4.5,0-8.7,2.4-11,6.4
		l-95.5,167C1739.1,781.4,1745.2,791.9,1754.9,791.9z"/>
</g>
<g id="STAIRS">
	<g>
		<polygon class="st3" points="3594.1,2438.8 230,2628.8 230,2358.5 3594.1,2358.5 		"/>
		<polygon class="st3" points="3440.8,2149 404.6,2339 404.6,2068.7 3440.8,2068.7 		"/>
		<polygon class="st3" points="3245.3,1860.2 568.5,2050.2 568.5,1779.9 3245.3,1779.9 		"/>
		<polygon class="st3" points="3091.2,1573.4 751.1,1763.4 751.1,1493.1 3091.2,1493.1 		"/>
		<polyline class="st0" points="230,2358.5 3594.1,2358.5 3594.1,2618.8 		"/>
		<polyline class="st0" points="404.6,2067.7 3440.8,2067.7 3440.8,2339.1 		"/>
		<polyline class="st0" points="568.5,1778.9 3245.3,1778.9 3245.3,2050.2 		"/>
		<polyline class="st0" points="752.1,1492.1 3091.2,1492.1 3091.2,1763.4 		"/>
		<polygon class="st3" points="2881.2,1302.4 961.2,1468.9 961.2,1232 2881.2,1232 		"/>
		<polyline class="st0" points="962,1231.1 2881.2,1231.1 2881.2,1468.9 		"/>
	</g>
	<g>
		<line class="st0" x1="751.3" y1="1774.6" x2="751.3" y2="1150.4"/>
		<path class="st0" d="M1268,726.9L93.5,1689c-41.1,41.1-64.2,96.8-64.2,154.9l0,0c0,121,98.1,224.1,219.1,224.1"/>
		<line class="st0" x1="401.6" y1="2339.1" x2="401.6" y2="1436"/>
	</g>
	<g>
		<line class="st0" x1="3091.2" y1="1776.6" x2="3091.2" y2="1150.4"/>
		<path class="st0" d="M2574.5,726.9L3749.1,1689c41.1,41.1,64.2,96.8,64.2,154.9l0,0c0,121-98.1,224.1-219.1,224.1"/>
		<line class="st0" x1="3441" y1="2339.1" x2="3441" y2="1436"/>
	</g>
</g>
<g id="PLANTS">
	<g>
		<path class="st4" d="M3281.5,2634.3c0,0,130.9-234.9,51.4-236.2c-37.1-0.6-75.1,126.5-60.7,236.2H3281.5z"/>
		<path class="st5" d="M3275.8,2633c0,0,48.6-219.9,166-184.4s-83,184.4-83,184.4"/>
		<path class="st5" d="M3118.7,2636.8c-40.7-3.8-63.7-76.6-15.5-100.9c69.3-34.9,91,38,77.3,40.4c-13.7,2.5-33-89.7,26.8-87.2
			c59.8,2.5,62,143.9,62,143.9"/>
		<path class="st5" d="M3325,2633c0,0,62.5-151.8,123.4-182.1"/>
		<path class="st6" d="M3258.4,2554.2c0,0-14.7-81.5-15.3-135.1"/>
		<path class="st6" d="M3276.2,2455.4c-2.9,7.2-25.3,25.1-25.3,25.1s-3.6-28.5-0.7-35.7c2.9-7.2,11.1-10.6,18.2-7.7
			C3275.6,2440,3279.1,2448.2,3276.2,2455.4z"/>
		<path class="st6" d="M3268.7,2398.1c-2.9,7.2-25.3,25.1-25.3,25.1s-3.6-28.5-0.7-35.7c2.9-7.2,11.1-10.6,18.2-7.7
			C3268.1,2382.8,3271.6,2390.9,3268.7,2398.1z"/>
		<path class="st6" d="M3217.1,2461.7c4.2,6.5,29.6,19.8,29.6,19.8s-1.9-28.6-6.1-35.1s-12.9-8.3-19.4-4.1
			C3214.7,2446.6,3212.9,2455.2,3217.1,2461.7z"/>
	</g>
	<g>
		<path class="st4" d="M371.1,2638.4c0,0-80.4-72.6-78.8-124.7c1.8-59.6,58.8-30.8,61.8-52.3c3.1-21.4-60.2-167.8,27.9-166.7
			s47.1,141.5,71,154.5c23.9,12.9,63.5-2.5,52.8,54.3c-10.7,56.9-99.7,134.2-99.7,134.2L371.1,2638.4z"/>
		<path class="st5" d="M129.7,2636.6c-52.1,0-92.2-95.2-11.9-120.4s89.1,50.7,71.6,53.6c-17.5,2.9-26.2-145.8,118.3-125.6
			c157.7,22,61.3,192.4,61.3,192.4s93-156.4,7.5-339.6"/>
		<g>
			<path class="st5" d="M478.2,2636.6c0,0,81.6-170.8,159.9-116.4s-105.5,116.4-105.5,116.4"/>
			<path class="st5" d="M507.6,2635.1c0,0,79.3-106,131.6-113.8"/>
		</g>
		<g>
			<path class="st5" d="M407.5,2635.6c0,0,42.9-99.9,80.9-159.1"/>
			<path class="st6" d="M498.5,2540.1c-8.4,5.8-45.9,9.3-45.9,9.3s16.7-33.8,25-39.6c8.4-5.8,19.8-3.7,25.6,4.7
				S506.9,2534.4,498.5,2540.1z"/>
			<path class="st6" d="M531.7,2471.9c-8.4,5.8-45.9,9.3-45.9,9.3s16.7-33.8,25-39.6c8.4-5.8,19.8-3.7,25.6,4.7
				S540.1,2466.2,531.7,2471.9z"/>
			<path class="st6" d="M545.6,2414c-5.4,8.6-38.5,26.6-38.5,26.6s1.9-37.6,7.4-46.2c5.4-8.6,16.8-11.2,25.4-5.8
				S551,2405.4,545.6,2414z"/>
			<path class="st6" d="M429.1,2504.3c-0.1,10.2,18.1,43.2,18.1,43.2s18.6-32.8,18.7-42.9c0.1-10.2-8.1-18.5-18.3-18.5
				C437.5,2486,429.2,2494.1,429.1,2504.3z"/>
			<path class="st6" d="M466.3,2436.9c-0.1,10.2,18.1,43.2,18.1,43.2s18.6-32.8,18.7-42.9c0.1-10.2-8.1-18.5-18.3-18.5
				S466.4,2426.8,466.3,2436.9z"/>
		</g>
	</g>
	<line class="st0" x1="2865.9" y1="2636.8" x2="3708.7" y2="2636.8"/>
	<line class="st0" x1="0" y1="2636.8" x2="2033.4" y2="2636.8"/>
</g>
<g id="_x33__CHARACTER">
	<g id="JACKET_1_">
		<g>
			<path class="st7" d="M1848.4,716.9c0,6.2-0.7,12.3-2,18.3c-0.3,1.2-0.6,2.4-0.9,3.6c-3.2,12-9,23.4-17.3,33.1
				c-0.1,0.1-0.2,0.3-0.3,0.4c-0.9,1.1-1.9,2.1-2.9,3.2c-0.2,0.3-0.5,0.5-0.7,0.7c-3.3,3.4-7,6.6-11,9.5c-7,5.1-14.4,8.9-22.1,11.6
				c-1.2,0.4-2.4,0.8-3.6,1.2c-10.8,3.2-22.1,4.2-33.1,3c-1.2-0.1-2.4-0.3-3.6-0.5c-11.7-1.8-23-5.9-33.1-12.4
				c-1.2-0.8-2.4-1.6-3.6-2.4c-4.4-3.1-8.5-6.7-12.3-10.7c-1.1-1.2-2.2-2.3-3.2-3.6c-2.1-2.5-4.2-5.2-6-8l-6.3-9.5l5.6,17.5l1.1,3.6
				l10.5,33.1l1.1,3.6l9.5,30l1,3.1l1.1,3.6l1.5,4.6l9,28.5l1.1,3.6l10.5,33.1l1.1,3.6l10.5,33.1l0.8,2.6l0.3,1l3.3,10.3l0.6,1.9
				c-0.1-0.4-0.3-0.8-0.6-1.2c-0.7-1-1.9-1.9-3.6-2.7c-5.7-2.8-17.1-4.9-33.1-6.1c-1.2-0.1-2.4-0.2-3.6-0.3
				c-9.6-0.6-20.6-1-33.1-1.2c-1.2,0-2.4,0-3.6,0c-10.2-0.1-21.2,0-33.1,0.3c-1.2,0-2.4,0.1-3.6,0.1c-10.5,0.3-21.5,0.7-33.1,1.2
				c-1.2,0.1-2.4,0.1-3.6,0.2c-10.6,0.5-21.6,1.1-33.1,1.8c-1.2,0.1-2.4,0.1-3.6,0.2c-10.7,0.7-21.7,1.4-33.1,2.3
				c-1.2,0.1-2.4,0.2-3.6,0.3c-10.8,0.8-21.8,1.7-33.1,2.7c-1.1,0.1-2.2,0.2-3.3,0.3c-0.1,0-0.2,0-0.3,0c-11.2,1-22.3,2-33.1,3.1
				c-1.2,0.1-2.4,0.2-3.6,0.4c-11.3,1.1-22.4,2.3-33.1,3.6c-1.2,0.1-2.4,0.3-3.6,0.4c-11.4,1.3-22.5,2.7-33.1,4.2
				c-1.2,0.2-2.4,0.3-3.6,0.5c-11.6,1.6-22.6,3.2-33.1,4.8c-1.2,0.2-2.4,0.4-3.6,0.6c-11.4,1.8-22,3.7-31.9,5.5
				c-0.4,0.1-0.8,0.2-1.2,0.2c-1.2,0.2-2.4,0.5-3.6,0.7c-4.5,0.9-8.8,1.8-12.9,2.7c-7.4,1.6-14.1,3.2-20.2,4.8
				c-1.2,0.3-2.4,0.6-3.6,1c-21,5.7-32.9,11.3-32.9,16.3V874.3h-110.3c-1.2,0-2.4,0-3.6-0.1c-11.6-0.4-22.7-2.6-33.1-6.2
				c-1.2-0.4-2.4-0.9-3.6-1.3c-10.9-4.3-21-10.2-30-17.5c-1-0.8-2.1-1.7-3.1-2.6c-0.4-0.3-0.7-0.6-1.1-1c-0.8-0.7-1.7-1.5-2.5-2.3
				c-0.7-0.6-1.3-1.3-2-2c-8.4-8.4-15.5-18.1-20.9-28.9c-0.6-1.2-1.2-2.4-1.7-3.6c-4.8-10.3-8-21.4-9.4-33.1
				c-0.2-1.2-0.3-2.4-0.4-3.6c-0.3-3.4-0.5-6.8-0.5-10.3c0-7.7,0.8-15.4,2.3-22.8c0.2-1.2,0.5-2.4,0.8-3.6
				c2.8-11.7,7.5-22.8,13.9-33.1c0.6-0.9,1.2-1.9,1.8-2.8l0.5-0.8l15.5-23.3l3.6-5.4l3-4.4l2.4-3.6l22.1-33.1l2.4-3.6l3.3-4.9
				l3.6-5.4l15.2-22.8l2.4-3.6l15.5-23.3l3.6-5.4l2.9-4.4l2.4-3.6l22.1-33.1l2.4-3.6l0.6-0.9c0.9-1.3,1.8-2.5,2.7-3.8
				c1.2-1.6,2.4-3.1,3.6-4.7c7-8.8,14.8-16.7,23.4-23.7c1.5-1.2,3-2.4,4.5-3.6c1.7-1.3,3.5-2.6,5.2-3.8c1.2-0.8,2.4-1.6,3.6-2.4
				c10.3-6.9,21.5-12.5,33.1-16.8c1.2-0.4,2.4-0.9,3.6-1.3c10.7-3.7,21.8-6.2,33.1-7.5c1.2-0.1,2.4-0.3,3.6-0.4
				c5-0.5,10.1-0.7,15.2-0.7h280.3l0.3-0.1l9.2-3.6l21.6-8.4l3.6-1.4l33.1-12.9l3.6-1.4l23.3-9l9.2-3.6l0.6-0.3l3.6-1.4l6.2-2.4
				l2.2,4.1l2,3.6l18.1,33.1l2,3.6l2.6,4.8l3.6,6.6l11.9,21.7l2,3.6l18.1,33.1l1.1,2.1l0.8,1.5l2.8,5l15.3,28.1l2,3.6l15.8,28.9
				l2.3,4.2l1.3,2.3l0.7,1.3l18.1,33.1l2,3.6l12.3,22.5l3.6,6.6l2.2,4l2,3.6l5.9,10.8c3.9,7.2,6.7,14.7,8.4,22.3
				c0.3,1.2,0.5,2.4,0.7,3.6C1848,707,1848.4,712,1848.4,716.9z"/>
			<g class="st8">
				<g>
					<g>
						<path class="st9" d="M1057.5,669.9v176.4c-0.4-0.3-0.7-0.6-1.1-1c-0.8-0.7-1.7-1.5-2.5-2.3V675.3L1057.5,669.9z"/>
					</g>
					<g>
						<path class="st9" d="M1130.9,559.8V874c-1.2,0-2.4,0-3.6-0.1V565.2L1130.9,559.8z"/>
					</g>
					<g>
						<path class="st9" d="M1094.2,614.8v252.8c-1.2-0.4-2.4-0.9-3.6-1.3V620.2L1094.2,614.8z"/>
					</g>
					<g>
						<path class="st9" d="M1204.3,472.1v401.8h-3.6V474.6C1201.9,473.8,1203.1,472.9,1204.3,472.1z"/>
					</g>
					<g>
						<path class="st9" d="M1167.6,505.7v368.2h-3.6V510.4C1165.2,508.8,1166.4,507.3,1167.6,505.7z"/>
					</g>
					<g>
						<path class="st9" d="M1277.7,446.2v554.2c-1.2,0.3-2.4,0.6-3.6,1V446.5C1275.3,446.4,1276.5,446.3,1277.7,446.2z"/>
					</g>
					<g>
						<path class="st9" d="M1241,454.1V874h-3.6V455.3C1238.6,454.9,1239.8,454.5,1241,454.1z"/>
					</g>
					<g>
						<g>
							<path class="st9" d="M1314.3,445.3v546.9c-1.2,0.2-2.4,0.5-3.6,0.7V445.3H1314.3z"/>
						</g>
					</g>
					<g>
						<path class="st9" d="M1387.7,445.3v535.3c-1.2,0.2-2.4,0.3-3.6,0.5V445.3H1387.7z"/>
					</g>
					<g>
						<path class="st9" d="M1351,445.3v540.6c-1.2,0.2-2.4,0.4-3.6,0.6V445.3H1351z"/>
					</g>
					<g>
						<path class="st9" d="M1461.1,445.3v526.8c-1.2,0.1-2.4,0.2-3.6,0.4V445.3H1461.1z"/>
					</g>
					<g>
						<path class="st9" d="M1424.4,445.3V976c-1.2,0.1-2.4,0.3-3.6,0.4V445.3H1424.4z"/>
					</g>
					<g>
						<path class="st9" d="M1534.5,445.3v520.4c-1.2,0.1-2.4,0.2-3.6,0.3V445.3H1534.5z"/>
					</g>
					<g>
						<path class="st9" d="M1497.8,445.3v523.4c-1.1,0.1-2.2,0.2-3.3,0.3c-0.1,0-0.2,0-0.3,0V445.3H1497.8z"/>
					</g>
					<g>
						<g>
							<path class="st9" d="M1571.1,445.3v518c-1.2,0.1-2.4,0.1-3.6,0.2V445.3H1571.1z"/>
						</g>
					</g>
					<g>
						<path class="st9" d="M1644.5,417.7v542.4c-1.2,0-2.4,0.1-3.6,0.1V419.1L1644.5,417.7z"/>
					</g>
					<g>
						<path class="st9" d="M1607.8,431.9v529.4c-1.2,0.1-2.4,0.1-3.6,0.2V433.3L1607.8,431.9z"/>
					</g>
					<g>
						<path class="st9" d="M1717.9,456.7v331.9c-1.2-0.8-2.4-1.6-3.6-2.4v-336L1717.9,456.7z"/>
						<path class="st9" d="M1717.9,853.5v107.7c-1.2-0.1-2.4-0.2-3.6-0.3V842.1l1,3.1l1.1,3.6L1717.9,853.5z"/>
					</g>
					<g>
						<polygon class="st9" points="1681.2,402.9 1681.2,403.4 1677.6,404.8 1677.6,402.9 						"/>
						<path class="st9" d="M1681.2,403.4v556.4c-1.2,0-2.4,0-3.6,0v-555L1681.2,403.4z"/>
					</g>
					<g>
						<path class="st9" d="M1791.3,590.8v206.5c-1.2,0.4-2.4,0.8-3.6,1.2V584.3l2.3,4.2L1791.3,590.8z"/>
					</g>
					<g>
						<path class="st9" d="M1754.6,969.3v0.8c-0.7-1-1.9-1.9-3.6-2.7V958l0.3,1L1754.6,969.3z"/>
						<path class="st9" d="M1754.6,523.7v277.7c-1.2-0.1-2.4-0.3-3.6-0.5V517.2l0.8,1.5L1754.6,523.7z"/>
					</g>
					<g>
						<g>
							<path class="st9" d="M1827.9,657.8v114.5c-0.9,1.1-1.9,2.1-2.9,3.2c-0.2,0.3-0.5,0.5-0.7,0.7V651.3L1827.9,657.8z"/>
						</g>
					</g>
				</g>
				<g>
					<g>
						<path class="st9" d="M1315.6,992c-0.4,0.1-0.8,0.2-1.2,0.2c-1.2,0.2-2.4,0.5-3.6,0.7c-4.5,0.9-8.8,1.8-12.9,2.7H1241V992
							L1315.6,992L1315.6,992z"/>
					</g>
					<g>
						<polygon class="st9" points="1739.7,922.2 1241,922.2 1241,918.6 1738.5,918.6 						"/>
					</g>
					<g>
						<polygon class="st9" points="1751.3,958.9 1241,958.9 1241,955.3 1750.2,955.3 1751,957.9 						"/>
					</g>
					<g>
						<g>
							<polygon class="st9" points="1728,885.5 1241,885.5 1241,882 1726.9,882 							"/>
						</g>
					</g>
					<g>
						<path class="st9" d="M1704.8,812.2h-673.7c-0.6-1.2-1.2-2.4-1.7-3.6h674.3L1704.8,812.2z"/>
					</g>
					<g>
						<path class="st9" d="M1716.4,848.9h-655.8c-1-0.8-2.1-1.7-3.1-2.6c-0.4-0.3-0.7-0.6-1.1-1h658.8L1716.4,848.9z"/>
					</g>
					<g>
						<path class="st9" d="M1846.5,735.2c-0.3,1.2-0.6,2.4-0.9,3.6h-824.2c0.2-1.2,0.5-2.4,0.8-3.6H1846.5z"/>
					</g>
					<g>
						<path class="st9" d="M1693.2,775.5h-673.3c-0.2-1.2-0.3-2.4-0.4-3.6H1692L1693.2,775.5z"/>
						<path class="st9" d="M1828.3,771.9c-0.1,0.1-0.2,0.3-0.3,0.4c-0.9,1.1-1.9,2.1-2.9,3.2H1702c-1.1-1.2-2.2-2.3-3.2-3.6H1828.3z
							"/>
					</g>
					<g>
						<polygon class="st9" points="1832.1,665.4 1060.5,665.4 1062.9,661.8 1830.1,661.8 						"/>
					</g>
					<g>
						<path class="st9" d="M1847.1,702.1h-811c0.6-0.9,1.2-1.9,1.8-2.8l0.5-0.8h808C1846.7,699.7,1846.9,700.9,1847.1,702.1z"/>
					</g>
					<g>
						<g>
							<polygon class="st9" points="1812,628.7 1085,628.7 1087.3,625.2 1810.1,625.2 							"/>
						</g>
					</g>
					<g>
						<polygon class="st9" points="1771.9,555.4 1133.8,555.4 1136.2,551.8 1769.9,551.8 						"/>
					</g>
					<g>
						<polygon class="st9" points="1792,592.1 1109.4,592.1 1111.8,588.5 1790,588.5 1791.3,590.8 						"/>
					</g>
					<g>
						<path class="st9" d="M1731.7,482h-540.8c1.5-1.2,3-2.4,4.5-3.6h534.3L1731.7,482z"/>
					</g>
					<g>
						<polygon class="st9" points="1751.8,518.7 1158.3,518.7 1160.7,515.1 1749.8,515.1 1751,517.2 						"/>
					</g>
					<g>
						<polygon class="st9" points="1691.6,408.6 1667.8,408.6 1677,405 1689.6,405 						"/>
					</g>
					<g>
						<polygon class="st9" points="1711.7,445.3 1573.5,445.3 1582.7,441.7 1709.7,441.7 						"/>
					</g>
				</g>
			</g>
		</g>
		<path class="st10" d="M1503.3,1041.7c-169.2,13.1-262-2.9-262.1-24.1l0,0c0-15.2,111.7-36.3,253.3-48.6
			c149.5-12.9,256.1-12.3,260.7,2.2C1761.6,991.4,1678.5,1028.1,1503.3,1041.7z"/>
		<g>
			<line class="st11" x1="1495.4" y1="847.1" x2="1553" y2="964.4"/>
			<circle class="st12" cx="1476.3" cy="884" r="8.9"/>
			<line class="st12" x1="1573.2" y1="445.4" x2="1698.8" y2="781.1"/>
			<path class="st13" d="M1019.5,744.3c25.4-14.7,62,1.1,81.7,35.3c19.7,34.1,15.1,73.7-10.3,88.4"/>
			<path class="st12" d="M1845.3,739.8c-5,17.9-15.9,34.3-31.9,45.9c-23.8,17.3-53.5,20.3-79,11c-5.7-22.4,10.9-49.2,39.9-62.7
				C1801.1,721.6,1830.1,724.6,1845.3,739.8z"/>
			<line class="st11" x1="1495.4" y1="966.7" x2="1494.2" y2="445.3"/>
			<circle class="st12" cx="1524.7" cy="554.1" r="8.9"/>
			<circle class="st12" cx="1524.7" cy="663.9" r="8.9"/>
			<circle class="st12" cx="1524.7" cy="773.7" r="8.9"/>
			<polyline class="st12" points="1365.1,443.6 1495,518.1 1564.2,442.7 			"/>
		</g>
	</g>
	<g id="LEGS_2_">
		<g id="RIGHT_3_">
			<polygon class="st14" points="1797.7,1780.5 1566.5,1780.6 1582,1731.1 1796.7,1731.1 			"/>
			<path class="st15" d="M1851.7,1208.1c35.8,59.2,46.1,130.4,28.7,197.3l-74.8,287.3l-10,38.4h-213.5l15.8-50.3l88.9-288.1
				l-254.5-417.6c19.8-2.2,40.6-4.3,62.1-6.1c88.2-7.6,161.4-10.5,207.6-8.7L1851.7,1208.1z"/>
		</g>
		<g id="LEFT_3_">
			<path class="st14" d="M2108.5,1780.5l-310.8,0.1l-1-49.8l0.2,0.3l171-79.3c96.5,29.9,138.2,73.4,155.8,101.4
				C2131.1,1765.1,2122.5,1780.5,2108.5,1780.5z"/>
			<g>
				<path class="st15" d="M1967.9,1651.8l-171,79.3l-454.6-622.2c-15-20.5-26.7-42.9-34.9-66.6c-5.2-15-9-30.5-11.3-46.3
					c46.1-10.1,117.4-20,198.4-27c20.4-1.8,39.9-3.3,58.5-4.5l40.6,67.2L1967.9,1651.8z"/>
				<line class="st16" x1="1467.2" y1="1028.9" x2="1868.6" y2="1694"/>
				<path class="st16" d="M1438.8,1003.1c0,0-3,73.4-66.4,99.3"/>
			</g>
		</g>
		<path id="SHADOW" class="st17" d="M1702.1,960.3l23,38.2c-26.5,11.8-70.2,24-131.6,33.1c-26.7,4-56.8,7.4-90.3,10
			c-16.9,1.3-33,2.3-48.3,3.1c-62.4,3.1-112,1.7-147.6-2.4c-5.2-15-9-30.5-11.3-46.3c0,0,99.9-19,203.1-27.4
			S1702.1,960.3,1702.1,960.3z"/>
		<path class="st13" d="M1238.5,1018.5c0-15.2,107.3-37.4,256-50.4c149.5-13.1,258.8-11.4,263.4,3.1"/>
	</g>
	<g id="HEAD_4_">
		<g id="NECK_1_">
			<polygon class="st18" points="1504.8,445.4 1370.5,445.4 1389,347.9 1504.8,347.9 			"/>
			<polygon class="st10" points="1403.9,445.4 1370.5,445.4 1389,347.9 1504.8,347.9 1504.8,382.3 			"/>
		</g>
		<path id="HAIR_2_" class="st19" d="M1388.5,362.5c0,0,18.4-104.6,20.8-110.5c4.1-10,88.8-42.2,101.8-30.3s-13.3,22.5,0.8,21.4
			s56.6-32.7,74.4-8.6c10.8,14.7-24,35.9-46.3,40.2s-85,37.9-86.5,49.8S1431.9,360.2,1388.5,362.5z"/>
		<g id="HEAD_5_">
			<path class="st18" d="M1540,272.9v88.6c0,13.8-11.2,24.9-24.9,24.9h-31.7c-16.5,0-29.8-13.4-29.8-29.9v-8.7h-15.4
				c-5,0-9.5-2-12.8-5.3s-5.3-7.8-5.3-12.8c0-10,8.1-18.1,18.1-18.1h17.4c4.6-14.4,16.7-25.6,32.2-28.6L1540,272.9z"/>
			<path class="st20" d="M1450,333.6c0-8.2-4.9-14.3-13-13"/>
			<path class="st20" d="M1507.4,305c0,0,10.4-5.9,22.1-7"/>
			<ellipse class="st10" cx="1521.8" cy="317.8" rx="4" ry="6.5"/>
		</g>
	</g>
	<g id="ARMS">
		<g id="LEFT_2_">
			<g>
				<g>
					<g>
						<path class="st9" d="M1444.6,764l-23.6,9l-2.1,0.8l-16.2,6.1v-44.6h-195.9l43.6-74.1l1.8-3.1l21.5-8.1l4.2-1.6l16.5-6.3
							l3.2-1.2l25.4-9.7l4.2-1.6l0,0l16.2-6.1l4-1.5l17.4-6.6c0.4-0.2,0.8-0.3,1.2-0.4c1.3-0.4,2.6-0.7,3.9-0.8
							c1.6-0.2,3.2-0.2,4.7-0.1c4.8,0.4,9.3,2.5,12.8,5.8c2.4,2.2,4.3,5,5.5,8.2L1444.6,764z"/>
						<path class="st4" d="M1414.3,677.8l-19.1-50.5c-1.3-3.4-3.3-6.4-5.7-8.7c-4-3.9-9.4-6.3-15-6.7c-1.8-0.1-3.6-0.1-5.3,0.2
							c-1.7,0.2-3.4,0.7-5,1.3l-17.4,6.6l-4.2,1.6l-16,6.1l-4.2,1.6l-25,9.5l-4.2,1.6l-16.1,6.1l-4.2,1.6l-18.9,7.2l-1.8,3.1
							l-1.8,3.1l24.3-9.2l4.2-1.6l45.1-17.1l4.2-1.6l36.1-13.7l1.3-0.5c0.6-0.2,1.2-0.4,1.8-0.6c1.2-0.3,2.3-0.5,3.5-0.6
							c0.6,0,1.1-0.1,1.7-0.1c7.9,0,15.4,4.8,18.4,12.7l50.7,133.8l-19.5,7.4l-2.1,0.8l-2.1,0.8l-15.4,5.8v4.8l17-6.4l27.8-10.6l0,0
							L1414.3,677.8z"/>
					</g>
					<g>
						<path class="st4" d="M1444.6,764l-23.7,9l-54.8-144.5c-2.5-6.5,0.8-13.8,7.3-16.3l0,0c6.5-2.5,13.8,0.8,16.3,7.3L1444.6,764z"
							/>
						<path class="st4" d="M1419.6,775.8L1364,629.2c-2.9-7.7,1-16.3,8.6-19.2c3.7-1.4,7.8-1.3,11.4,0.3c3.6,1.6,6.4,4.6,7.8,8.3
							l55.6,146.6L1419.6,775.8z M1378,613.6c-1.2,0-2.5,0.2-3.7,0.7c-5.4,2-8.1,8.1-6,13.4l54,142.4l19.5-7.4l-54-142.4
							c-1-2.6-2.9-4.7-5.5-5.8C1380.9,613.9,1379.4,613.6,1378,613.6z"/>
					</g>
					<g>
						<path class="st4" d="M1338,643.7c-2.4,0-5-0.9-7.4-2.6c-3.4-2.4-6.1-6.1-7.8-10.5c-1.7-4.4-2.1-9.1-1.1-13.1
							c1-4.3,3.5-7.4,6.9-8.7c6.9-2.6,15.1,2.9,18.7,12.5c0.4,1.2-0.1,2.5-1.3,2.9c-1.2,0.4-2.5-0.1-2.9-1.3c-2.7-7-8.6-11.5-13-9.9
							c-2,0.8-3.5,2.7-4.1,5.5c-0.7,3.1-0.4,6.8,1,10.4s3.6,6.6,6.2,8.5c2.4,1.7,4.8,2.2,6.8,1.4c1.2-0.4,2.5,0.1,2.9,1.3
							c0.4,1.2-0.1,2.5-1.3,2.9C1340.4,643.5,1339.2,643.7,1338,643.7z"/>
					</g>
					<g>
						<path class="st4" d="M1288.3,661.8c-2.4,0-5-0.9-7.4-2.6c-3.4-2.4-6.1-6.1-7.8-10.5c-1.7-4.4-2.1-9.1-1.1-13.1
							c1-4.3,3.5-7.4,6.9-8.7c3.4-1.3,7.3-0.6,10.9,1.9c3.4,2.4,6.1,6.1,7.8,10.5c0.4,1.2-0.1,2.5-1.3,2.9c-1.2,0.4-2.5-0.1-2.9-1.3
							c-1.4-3.6-3.6-6.6-6.2-8.5c-2.4-1.7-4.8-2.2-6.8-1.4c-2,0.8-3.5,2.7-4.1,5.5c-0.7,3.1-0.4,6.8,1,10.4s3.6,6.6,6.2,8.5
							c2.4,1.7,4.8,2.2,6.8,1.4c1.2-0.4,2.5,0.1,2.9,1.3c0.4,1.2-0.1,2.5-1.3,2.9C1290.7,661.6,1289.5,661.8,1288.3,661.8z"/>
					</g>
				</g>
				<g>
					<ellipse class="st21" cx="1402.9" cy="804.6" rx="25.4" ry="69.3"/>
					<path class="st18" d="M1494.1,749.5v75c0,6-3.1,11.6-8.2,14.8l-32,19h-67.2c-5.7-12.7-9.3-32-9.3-53.5c0-15.5,1.9-29.9,5-41.4
						h64.4l-9.9-26.2c-2.9-7.5,4.1-15.1,11.8-13l32.6,8.6C1488.9,734.8,1494.1,741.6,1494.1,749.5z"/>
					<path class="st22" d="M1492.3,801.1c0,6-3.1,11.6-8.2,14.8l-30.2,19"/>
					<path class="st22" d="M1492.3,773.4c0,6-3.1,11.6-8.2,14.8l-30.2,19"/>
					<path class="st22" d="M1492.3,747.4c0,6-3.1,11.6-8.2,14.8l-30.2,19"/>
					<line class="st22" x1="1461.8" y1="753.8" x2="1446.7" y2="763.2"/>
					<path class="st10" d="M1428.3,804.6c0,21.6-3.6,40.9-9.3,53.6h-32.3c-5.7-12.7-9.3-32-9.3-53.6c0-15.5,1.9-29.9,5-41.4h40.8
						C1426.4,774.7,1428.3,789.1,1428.3,804.6z"/>
				</g>
			</g>
			<line class="st12" x1="1282.2" y1="612.5" x2="1210.3" y2="733.6"/>
			<path class="st13" d="M1402,733.6c-14,0-25.4,34.1-25.4,72.9s11.4,70.2,25.4,70.2h-161"/>
		</g>
		<g id="RIGHT_2_">
			<g>
				<path class="st23" d="M1576.5,315.6l94.8,117.7l-53.8,54.6l-119.1-93c-3.5-3.4-0.7-12.4,6.5-23.6c5.2-8.2,12.7-17.5,21.8-26.7
					s18.3-16.9,26.4-22.2C1564.1,315.2,1573,312.3,1576.5,315.6z"/>
				
					<ellipse transform="matrix(0.7017 -0.7124 0.7124 0.7017 162.1141 1308.8553)" class="st24" cx="1644.2" cy="460.8" rx="38.3" ry="14.3"/>
			</g>
			<g>
				<path class="st18" d="M1599.5,425.2v7.6c0,6.2-15.8,9.2-20.1,4.7l-37.4-39.2c-2.8-3-4.4-6.9-4.4-11v-22.6
					c0-5.8,2.7-11.2,7.3-14.7l13.3-10.1c3.2-2.5,7.2-3.8,11.2-3.8h36.1c10,0,19.2,5.5,23.8,14.3l31.8,59.9h-46.9
					C1606.1,410.4,1599.5,417,1599.5,425.2z"/>
				<path class="st22" d="M1660.4,410.4h-45.1c-8.2,0-14.9,6.7-14.9,14.9v7.6c0,6.2-14,9.2-18.3,4.7l-41.5-43.2"/>
				<path class="st22" d="M1555.9,410.4c-2.8-2.9-4.3-6.7-4.3-10.7v-22c0-5.7,2.6-11,7.1-14.4l13-9.9c3.2-2.4,7-3.7,11-3.7h25.4"/>
				<path class="st22" d="M1570.3,425.6c-2.8-2.9-4.3-6.7-4.3-10.7v-22c0-5.7,2.6-11,7.1-14.4l13-9.9c3.2-2.4,7-3.7,11-3.7h22.7"/>
				<path class="st22" d="M1586,438.2c-2.6-2.7-4-6.2-4-9.9v-20.4c0-5.2,2.4-10.2,6.6-13.3l12-9.2c2.9-2.2,6.5-3.4,10.1-3.4h15.2"/>
			</g>
		</g>
	</g>
</g>
<g id="_x32__CHARACTER">
	<g id="SHIRT">
		<path class="st25" d="M2359.8,1187.6h391.8c79.2,0,153.2,39,198,104.2l179.5,264.4c14.8,21.5,1.4,50.8-24.7,50.8h-199.8
			l-79.8-104.3c-9.4-13.2-30.2-7.4-31.5,8.8l-16.1,196.4h-427.3l-36-199.7c-2.2-15.6-22.4-20.4-31.5-7.5l-73.3,94.4h-238.9
			l186.4-295.4C2200.7,1229.9,2277.4,1187.6,2359.8,1187.6z"/>
		<g>
			<polygon class="st7" points="2598.5,1289.6 2662,1500.5 2505.1,1500.5 2574.8,1289.6 			"/>
			<g class="st8">
				<g>
					<g>
						<polygon class="st9" points="2547.9,1371.1 2547.9,1500.5 2543.7,1500.5 2543.7,1383.8 2543.7,1383.8 2545.1,1379.5 						"/>
					</g>
					<g>
						<rect x="2588.4" y="1290.1" class="st9" width="4.2" height="210.4"/>
					</g>
					<g>
						<polygon class="st9" points="2637.3,1418.4 2637.3,1500.5 2633.1,1500.5 2633.1,1404.4 						"/>
					</g>
				</g>
				<g>
					<g>
						<polygon class="st9" points="2653.8,1473.2 2514.1,1473.2 2515.5,1468.9 2652.5,1468.9 						"/>
					</g>
					<g>
						<polygon class="st9" points="2640.3,1428.5 2528.9,1428.5 2530.3,1424.2 2639,1424.2 						"/>
					</g>
					<g>
						<polygon class="st9" points="2626.9,1383.8 2543.7,1383.8 2545.1,1379.5 2625.6,1379.5 						"/>
					</g>
					<g>
						<polygon class="st9" points="2613.4,1339.1 2558.5,1339.1 2559.9,1334.8 2612.1,1334.8 						"/>
					</g>
					<g>
						<polygon class="st9" points="2599.9,1294.4 2573.3,1294.4 2574.7,1290.1 2598.7,1290.1 						"/>
					</g>
				</g>
			</g>
		</g>
		<polygon class="st25" points="2626.9,1287.4 2652.5,1314.9 2735,1187.6 2661.9,1187.6 		"/>
		<polygon class="st25" points="2551,1287.4 2525.3,1314.9 2435.9,1187.6 2515.9,1187.6 		"/>
	</g>
	<g id="HAND_1_">
		<path class="st26" d="M3160.5,1631.2c0,49.8-35.5,97-90.7,105.1l-226.3,33.3l-49.7,7.3v-192.4l15.3-3.6l220.8-52.4
			c42.6-10.1,87,7,111.8,43.1C3154.6,1590.2,3160.5,1610.9,3160.5,1631.2z"/>
		<polygon class="st21" points="2843.5,1769.6 2793.8,1776.9 2793.8,1584.5 2809.1,1580.9 		"/>
	</g>
	<g id="LAPTOP">
		<path class="st18" d="M2793.8,1826.1h-475.7v-285.5c0-22.2,18-40.1,40.1-40.1h395.4c22.2,0,40.1,18,40.1,40.1L2793.8,1826.1
			L2793.8,1826.1z"/>
		<path class="st12" d="M2585.3,1686.1h-58.7c-6,0-10.8-4.8-10.8-10.8v-24.6c0-6,4.8-10.8,10.8-10.8h58.7c6,0,10.8,4.8,10.8,10.8
			v24.6C2596.1,1681.3,2591.2,1686.1,2585.3,1686.1z"/>
	</g>
	<g id="LEGS_1_">
		<g id="RIGHT_1_">
			<path id="LEG_1_" class="st27" d="M2485.2,1823l503.6-75.3c98-14.9,186.3,61,186.3,160.2l0,0c0,89.5-72.5,162-162,162h-524.6
				L2485.2,1823z"/>
			<g id="SHOES_1_">
				<path class="st28" d="M2417.1,2114l-303.1,58.5c-38.6,8.2-77.4-24-79.1-65.6l-4.5-110.6c-2.3-56,51.4-89.7,102-65.7L2417.1,2114
					z"/>
				<path class="st29" d="M2134.5,2168.5c-37.3,7.8-75-23.5-76.8-64l-4.7-107.4c-2.4-54.4,49.4-86.8,98.4-63.4"/>
				<polygon class="st7" points="2132.4,1930.5 2417.1,2114 2352.2,2126.5 				"/>
				<g>
					<polyline class="st30" points="2242.1,2010.9 2204.6,2085.6 2167.5,1997.8 2124.6,2096.4 					"/>
					<polyline class="st30" points="2122.5,1984.1 2164.5,2088.9 2205.6,2005.2 2237.5,2075 					"/>
				</g>
			</g>
		</g>
		<g id="LEFT_1_">
			<g id="LEG">
				<path class="st4" d="M2652.5,1976.9c-16.8-13.8-65.4,17.6-108.6,70.1s-64.6,106.3-47.8,120.1c-2.5-1.5-318.2-199.5-514.1-334.6
					c-49.8-34.3-76.1-89.3-76.1-145c0-38.8,12.8-77.9,39.3-110.6c66.4-81.9,189.4-87.4,262.9-11.8L2652.5,1976.9z"/>
				
					<ellipse transform="matrix(0.6352 -0.7723 0.7723 0.6352 -661.2032 2743.8911)" class="st31" cx="2574.2" cy="2071.9" rx="123.1" ry="39.4"/>
			</g>
			<g id="SHOES">
				<path class="st28" d="M2791.5,2149.7l-56.2,95.4c-28.5,48.3-92.9,49.2-122.4,1.6l-94.6-152.4c8.1-13.4,18.1-27.4,29.6-41.4
					c20.8-25.3,42.9-45.7,62.1-58.5l150.6,57.3C2797.4,2065.8,2812.6,2113.8,2791.5,2149.7z"/>
				<path class="st29" d="M2744.7,2045.5c34.8,13.5,47.1,58.6,27.2,93.1l-53,91.5c-26.8,46.4-87.5,47.2-115.4,1.6"/>
				<g>
					<polyline class="st30" points="2559.9,2094.4 2636.5,2055.6 2613.5,2147.9 2705.1,2091.7 					"/>
					<polyline class="st30" points="2642.6,2184.9 2666.4,2077.4 2588.3,2115.9 2600.3,2044.5 					"/>
				</g>
			</g>
		</g>
	</g>
	<g id="HEAD_3_">
		<path id="HEAD_2_" class="st26" d="M2702.3,1204.9c-0.4,6.4-3.2,12.1-7.6,16.2c-4.4,4.1-10.2,6.6-16.6,6.6H2656l-1.4,23.3
			c-1.2,19.2-20.3,38.8-40.2,38.8h-55.9c-19.8,0-39-19.6-40.2-38.8l-1.4-23.3h-22.4c-6.4,0-12.3-2.5-16.6-6.6
			c-4.4-4.1-7.2-9.8-7.6-16.3c-0.8-14,10.7-25.6,24.7-25.6h18.9l-2.1-35.5c-0.4-7.5,5.5-13.8,13-13.8h123.4c7.5,0,13.4,6.3,13,13.8
			l-2.1,35.5h19.1C2692,1179.3,2703.1,1191,2702.3,1204.9z"/>
		<path id="HAIR_1_" class="st21" d="M2659,1179.2h20.1c0,0,19.2-69.7,0.7-87.6c-18.5-17.9-132.1-59.1-168.8-33.4
			c-26.8,18.8-12.2,121-12.2,121h14.8c0,0,59.7-42.8,69.1-39.1c9.4,3.7-27,21.7-19.7,25.2c27.3,13.1,76.4-34.4,87.7-34.4
			C2662,1130.9,2659,1179.2,2659,1179.2z"/>
		<g id="FACE">
			<path class="st22" d="M2633.7,1196.5c0,0-13.1-10.6-29.9-3.7"/>
			<path class="st22" d="M2606.9,1253.5c0,0-7.2,15.4-29,7.4"/>
			<path class="st22" d="M2534.1,1193c0,0,26.5-5.9,34.5,10.5c4.9,10.1,2.5,45.4,8.2,45.8c5.7,0.4,14.3,0,14.3,0"/>
			<ellipse class="st21" cx="2615.8" cy="1215.9" rx="4.7" ry="7.8"/>
			<ellipse class="st21" cx="2555" cy="1215.9" rx="4.7" ry="7.8"/>
			<path class="st22" d="M2509,1208.5c-0.6-9.8-8.7-17.4-18.5-17.4"/>
			<path class="st22" d="M2662.5,1209c0.6-10.4,9.2-18.5,19.5-18.5"/>
		</g>
	</g>
</g>
<g id="_x31__CHARACTER">
	<g id="HEAD_1_">
		<g id="HAIR">
			<path class="st18" d="M1184,1402.6c0-6.5-0.3-12.8-0.8-18.7c-6.1-2.7-44.6-21.2-54.3-54.5c0,0-29.2,59.1-72.6,52.3
				c-0.1,0-0.2,0-0.3-0.1c0,0,0,0-0.1,0l-10.5-5.4c-0.2-0.1-0.3-0.2-0.5-0.2c-11.9-5.7-25.6,1.7-28,14.1c-2.8-7.8-4.8-16.1-6-24.8
				c-7.7-58.2,24.4-106.9,77.7-106.9c48.6,0,95.3,45.7,102.7,94C1194.3,1370.7,1191.2,1387.8,1184,1402.6z"/>
			<path class="st18" d="M1025.5,1409.6c-4.7,27.6-107.7-10.9-130.6,35.2c-14.9,30.1,8.1,66.4-56.6,69.5
				c-77.1,3.6-108.4,45.8-95.9,143.6L953,1546.2l58.8-52.4l25.6-78.7L1025.5,1409.6z"/>
		</g>
		<g id="NECK">
			<polygon class="st10" points="1145.5,1474.6 1145.5,1502 1080.4,1541.4 1011.8,1493.9 1037.4,1415.2 			"/>
			<polygon class="st17" points="1049.2,1421.4 1080.4,1541.4 1145.5,1502 1145.5,1474.6 			"/>
		</g>
		<g id="HEAD">
			<path class="st10" d="M1184,1403.2c0,44.7-28.7,81-64.1,81c-29,0-54.7-24.3-63.1-57.7l-29.3-15c-3.3-1.7-6-4.2-7.9-7.3
				c-1.9-3-2.9-6.6-2.9-10.3c0-14.8,15.6-24.3,28.8-17.6l10.9,5.5v-0.1c43.4,6.7,72.6-52.3,72.6-52.3c9.7,33.3,48.2,51.7,54.3,54.5
				C1183.8,1390,1184,1396.4,1184,1403.2z"/>
			<g>
				<path class="st32" d="M1183.8,1393.9c0,0-16.1-6.7-26,3.3c-12.3,12.4-9.6,48-9.6,48"/>
				<path class="st32" d="M1126,1391.8c0,0-13.3-1-26.5,6"/>
				<path class="st32" d="M1047.3,1401.7c-1.1-6.6-5.9-12-12.3-14"/>
				
					<ellipse transform="matrix(0.2616 -0.9652 0.9652 0.2616 -540.5378 2122.7944)" class="st17" cx="1117.1" cy="1414.7" rx="7.8" ry="4.7"/>
				
					<ellipse transform="matrix(0.2616 -0.9652 0.9652 0.2616 -506.2858 2171.5623)" class="st17" cx="1166.1" cy="1416.7" rx="7.8" ry="4.7"/>
				<path class="st32" d="M1143.3,1457.2c0,0-17.3,4.6-22.3-10"/>
			</g>
		</g>
	</g>
	<g id="BLOUSE">
		<path class="st14" d="M883.8,1546.5h389.5c53.4,0,101.9,31.5,123.5,80.4l73.6,151.4l-660.7,319.9L596.8,2007l115.9-339.2
			C738.3,1595.1,806.8,1546.5,883.8,1546.5z"/>
		<g>
			<polygon class="st7" points="1066.4,1613.3 1034.1,1594.2 1078.9,1543.2 1082.1,1543.2 1127.5,1590.8 1096,1609.9 1231.2,1888.5 
				974.5,2014 			"/>
			<g class="st8">
				<g>
					<g>
						<polygon class="st9" points="1012.8,1847 1012.8,1960.4 1008.8,1960.4 1008.8,1864.4 						"/>
					</g>
					<g>
						<polygon class="st9" points="1054.9,1663.1 1054.9,1960.3 1050.9,1960.3 1050.9,1680.5 1053.4,1669.7 1054.3,1665.7 						"/>
						<polygon class="st9" points="1054.9,1570.4 1054.9,1606.5 1050.9,1604.2 1050.9,1575 						"/>
					</g>
					<g>
						<polygon class="st9" points="1097.1,1559 1097.1,1954.1 1093.1,1956 1093.1,1554.8 						"/>
					</g>
					<g>
						<polygon class="st9" points="1139.3,1699.1 1139.3,1933.4 1135.3,1935.4 1135.3,1690.9 						"/>
					</g>
					<g>
						<polygon class="st9" points="1181.5,1786 1181.5,1912.8 1177.5,1914.8 1177.5,1777.7 						"/>
					</g>
					<g>
						<polygon class="st9" points="1223.6,1872.9 1223.6,1892.2 1219.6,1894.1 1219.6,1864.7 						"/>
					</g>
				</g>
				<g>
					<g>
						<polygon class="st9" points="1083.2,1960.9 1075,1964.9 985.8,1964.9 986.7,1960.9 						"/>
					</g>
					<g>
						<polygon class="st9" points="1169.4,1918.7 1161.2,1922.7 995.4,1922.7 996.4,1918.7 						"/>
					</g>
					<g>
						<polygon class="st9" points="1227.3,1880.5 1005.1,1880.5 1006,1876.5 1225.4,1876.5 						"/>
					</g>
					<g>
						<polygon class="st9" points="1206.9,1838.4 1014.8,1838.4 1015.7,1834.4 1204.9,1834.4 						"/>
					</g>
					<g>
						<polygon class="st9" points="1186.4,1796.2 1024.4,1796.2 1025.4,1792.2 1184.5,1792.2 						"/>
					</g>
					<g>
						<polygon class="st9" points="1165.9,1754 1034.1,1754 1035,1750 1164,1750 						"/>
					</g>
					<g>
						<polygon class="st9" points="1145.5,1711.9 1043.8,1711.9 1044.7,1707.9 1143.5,1707.9 						"/>
					</g>
					<g>
						<polygon class="st9" points="1125,1669.7 1053.4,1669.7 1054.3,1665.7 1123.1,1665.7 						"/>
					</g>
					<g>
						<polygon class="st9" points="1104.6,1627.5 1063.1,1627.5 1064,1623.5 1102.6,1623.5 						"/>
					</g>
					<g>
						<polygon class="st9" points="1122.3,1585.4 1041.8,1585.4 1045.3,1581.4 1118.5,1581.4 						"/>
					</g>
				</g>
			</g>
		</g>
		<line class="st33" x1="869.9" y1="1763.5" x2="838.5" y2="1869.5"/>
		<polygon class="st34" points="1200.5,1546.3 1126.4,1588.7 1082.1,1543.2 1078.9,1543.2 1035.1,1592.2 953,1546.3 1012.8,1493.9 
			1080.4,1541.4 1145.5,1502 		"/>
	</g>
	<g id="BOOK">
		<polygon class="st4" points="1597.1,1670.5 1519.5,1917.1 1047.5,1917.1 1125.1,1670.5 		"/>
		<line class="st11" x1="1298.5" y1="1917.1" x2="1376.1" y2="1670.5"/>
		<path class="st35" d="M1134,1670.5c0,0,59.1-35.1,144.7-29.7c85.6,5.3,97.6,29.7,97.6,29.7H1134z"/>
		<path class="st35" d="M1580,1670.5c0,0-111.4-49.2-203.7,0H1580z"/>
	</g>
	<g id="LEGS">
		<g id="RIGHT">
			<path class="st10" d="M1364,2174.9l-229.4,181.2c-27.4,21.6-31,61.8-7.9,87.9l157.6,178.8c0,0,15-11.1,10-55.7
				c-7-61.7,10-119.4,10-119.4l339.5-242.1c52.5-37.4,84.1-97.6,85-162.1l0,0c1.3-87.6-104.9-132-166.4-69.7L1364,2174.9z"/>
			<path class="st15" d="M1304.2,2447.6c0,0-16.9,57.7-10,119.4c5,44.7-10,55.8-10,55.8L1126.6,2444c-23.1-26.2-19.4-66.3,7.9-87.9
				l73.6-58.2c2.2-1.6,4.4-3.3,6.6-5l93.6-74l55.6-44c0,0-3.1,73.1,31.3,207.8L1304.2,2447.6z"/>
			<g>
				<path class="st18" d="M1297.9,2573c1.9,17.3,0.7,29.8-1.6,38.6c-0.5,2.1-1.1,3.9-1.8,5.6c-3.9,10.3-9,13.7-9,13.7l-163.4-185.3
					c-21.2-24.1-20.6-59.6-0.3-82.9c2.5-2.9,5.4-5.7,8.6-8.2l5.3-4.2l46-36.3c-3,20,9.9,53.5,34.7,85.1c31.4,40,73.1,61.3,91.3,50.3
					C1304.8,2460,1291.5,2515.9,1297.9,2573z"/>
				<g>
					<path class="st9" d="M1296.4,2611.6c-0.5,2.1-1.1,3.9-1.8,5.6l-162.2-184c-12-13.6-17.7-31.1-16.1-49.2
						c0.7-7.5,2.6-14.8,5.6-21.4c2.5-2.9,5.4-5.7,8.6-8.2l5.3-4.2c-8.3,9.5-13.4,21.3-14.5,34.2c-1.5,16.7,3.8,32.9,14.9,45.5
						L1296.4,2611.6z"/>
				</g>
				<path class="st9" d="M1301.1,2479.8c0,0-44-17.5-49.9,0c-5.8,17.5,46.6,28.6,46.6,28.6L1301.1,2479.8z"/>
			</g>
		</g>
		<g id="LEFT">
			<path class="st10" d="M1582,1937.6v547.9c-63.7,64.7-148.3,29.9-148.3,29.9c-74.7-215-69.7-334.4-69.7-334.4l-55.6,43.9
				c-142.2-88.8-153.8-293.1-154.1-298l231.7-112.1C1476.7,1770.9,1582,1836.9,1582,1937.6z"/>
			<path class="st16" d="M1386.1,1814.7c90.6-43.8,195.9,22.2,195.9,122.8v547.9c-63.7,64.7-148.3,29.9-148.3,29.9
				c-74.6-215-69.7-334.5-69.7-334.5"/>
			<g id="SKIRT">
				<path class="st7" d="M1308.4,2224.8l-93.6,74c-167.8,132.7-414.6,13.2-414.6-200.7l0,0l354.1-171.4c0,0,0,0,0,0.1
					C1154.6,1931.8,1166.3,2136.1,1308.4,2224.8z"/>
				<g class="st8">
					<g>
						<g>
							<path class="st9" d="M844.4,2076.8v166.1c-1.4-2-2.7-4-4-6v-158.2L844.4,2076.8z"/>
						</g>
						<g>
							<path class="st9" d="M886.6,2056.4v233.7c-1.3-1.2-2.7-2.4-4-3.6v-228.2L886.6,2056.4z"/>
						</g>
						<g>
							<path class="st9" d="M928.7,2036v284.1c-1.3-0.8-2.7-1.5-4-2.3v-279.9L928.7,2036z"/>
						</g>
						<g>
							<path class="st9" d="M970.9,2015.6v323.9c-1.3-0.5-2.7-0.9-4-1.4v-320.5L970.9,2015.6z"/>
						</g>
						<g>
							<path class="st9" d="M1013.1,1995.2v355.5c-1.3-0.2-2.7-0.5-4-0.7v-352.8L1013.1,1995.2z"/>
						</g>
						<g>
							<path class="st9" d="M1055.2,1974.7v379.8c-1.3,0-2.7,0-4-0.1v-377.7L1055.2,1974.7z"/>
						</g>
						<g>
							<path class="st9" d="M1097.4,1954.3v397c-1.3,0.2-2.7,0.4-4,0.6v-395.6L1097.4,1954.3z"/>
						</g>
						<g>
							<path class="st9" d="M1139.6,1933.9v406.7c-1.3,0.5-2.7,0.9-4,1.4v-406.1L1139.6,1933.9z"/>
						</g>
						<g>
							<path class="st9" d="M1181.7,2054.8v266.5c-1.3,0.8-2.7,1.5-4,2.2v-280.4c0.2,0.7,0.4,1.4,0.7,2c0.4,1.3,0.9,2.7,1.3,4
								C1180.4,2051,1181.1,2052.9,1181.7,2054.8z"/>
						</g>
						<g>
							<path class="st9" d="M1223.9,2140.8v150.9l-4,3.2v-160.3C1221.2,2136.6,1222.5,2138.7,1223.9,2140.8z"/>
						</g>
						<g>
							<path class="st9" d="M1266.1,2191.8v68.2h-2.1l-1.9,1.5v-73.7C1263.4,2189.2,1264.7,2190.5,1266.1,2191.8z"/>
						</g>
					</g>
					<g>
						<g>
							<path class="st9" d="M1140.3,2340.3c-0.3,0.1-0.5,0.2-0.8,0.3c-1.3,0.5-2.7,0.9-4,1.4c-2.5,0.8-5,1.6-7.6,2.4H985.7
								c-4.2-1.2-8.4-2.6-12.6-4L1140.3,2340.3L1140.3,2340.3z"/>
						</g>
						<g>
							<path class="st9" d="M1215.7,2298.1l-0.9,0.7c-1.4,1.1-2.8,2.2-4.2,3.3H901.4c-1.8-1.3-3.5-2.6-5.2-4H1215.7z"/>
						</g>
						<g>
							<path class="st9" d="M1269,2256l-3,2.3v1.7H857.2c-1.1-1.3-2.2-2.7-3.2-4H1269z"/>
						</g>
						<g>
							<path class="st9" d="M1297.8,2217.8H829.3c-0.7-1.3-1.4-2.7-2.1-4h465C1294,2215.2,1295.9,2216.5,1297.8,2217.8z"/>
						</g>
						<g>
							<path class="st9" d="M1250.6,2175.6H811.8c-0.4-1.3-0.8-2.7-1.2-4h436.6C1248.2,2173,1249.4,2174.3,1250.6,2175.6z"/>
						</g>
						<g>
							<path class="st9" d="M1219.2,2133.5H802.5c-0.2-1.3-0.3-2.7-0.5-4h414.7C1217.6,2130.8,1218.4,2132.1,1219.2,2133.5z"/>
						</g>
						<g>
							<path class="st9" d="M1196.6,2091.3H814.5l8.3-4h372C1195.3,2088.6,1195.9,2090,1196.6,2091.3z"/>
						</g>
						<g>
							<path class="st9" d="M1179.8,2049.1H901.6l8.3-4h268.6C1178.8,2046.5,1179.3,2047.8,1179.8,2049.1z"/>
						</g>
						<g>
							<path class="st9" d="M1167.4,2007H988.6l8.3-4h169.5C1166.8,2004.3,1167.1,2005.6,1167.4,2007z"/>
						</g>
						<g>
							<path class="st9" d="M1158.8,1964.8h-83.1l8.3-4h74.2C1158.4,1962.1,1158.6,1963.4,1158.8,1964.8z"/>
						</g>
					</g>
				</g>
				<path class="st11" d="M1154.3,1926.8L1154.3,1926.8c0.3,5,11.9,209.3,154.1,298.1"/>
			</g>
			<path class="st9" d="M1582,2289.7v195.8c-63.7,64.7-148.3,29.9-148.3,29.9c-32.7-94.2-50.1-170.1-59.4-225.6L1582,2289.7
				L1582,2289.7z"/>
			<path class="st16" d="M1433.6,2515.3c-32.7-94.2-50.1-170.1-59.4-225.6h207.7v195.8"/>
			<g>
				<path class="st18" d="M1731.3,2628.8h-295.5c-13.8,0-24.3-12.3-22.1-25.9l0.5-3l1.8-10.8l12.8-78.4c0,0,90.1,36.3,156.5-31.1
					c0,0,20.8,53.6,107.6,93c20.4,9.3,30,23.1,34.5,34.8c0.7,1.7,1.2,3.4,1.7,5C1731.8,2621.8,1731.3,2628.8,1731.3,2628.8z"/>
				<g>
					<path class="st9" d="M1729.1,2612.3h-293.3c-7.3,0-14.2-3.2-18.9-8.8c-1-1.2-1.9-2.4-2.6-3.7l1.8-10.8
						c0.3,4.1,1.9,8.1,4.7,11.3c3.8,4.4,9.3,7,15.1,7h291.6C1728.1,2609,1728.7,2610.7,1729.1,2612.3z"/>
				</g>
				<path class="st9" d="M1631.1,2535.1c-32.8,23.4-83.3,16.7-86.7,6.6c-3.5-10,48.9-17.3,55.8-38.1
					C1607.5,2512.7,1616.9,2523.7,1631.1,2535.1z"/>
			</g>
			<path class="st16" d="M1364,2180.9c0-117.5,31-185.7,31-185.7"/>
		</g>
	</g>
	<g id="HAND">
		<path class="st10" d="M1080.4,1812.6L670,1909.1c-52,12.2-88.7,58.6-88.7,112l0,0c0,84.9,88.9,140.6,165.3,103.5l397.1-192.8
			c6.8-3.3,12.2-9.1,14.9-16.2l44-112.9c1.8-4.5-2-9.3-6.9-8.6l-7,1c-11.1,1.6-21.1,7.7-27.6,16.9l-17.9,26.8
			c-3.3,4.9-8.8,7.8-14.7,7.8h-41.9c-8.5,0-14.6-8.3-12-16.4L1080.4,1812.6z"/>
		<g>
			<path class="st11" d="M1076.4,1813.6L670,1910.1c-52,12.2-88.7,58.6-88.7,112l0,0c0,84.9,88.9,140.6,165.3,103.5l397.1-192.8
				c6.8-3.3,12.2-9.1,14.9-16.2l44-112.9c1.8-4.5-2-9.3-6.9-8.6l-7,1c-11.1,1.6-21.1,7.7-27.6,16.9l-17.9,26.8
				c-3.3,4.9-8.8,7.8-14.7,7.8h-45.9c-8.5,0-14.6-8.3-12-16.4L1076.4,1813.6z"/>
			<path class="st13" d="M1092.6,1879.6h61.3c10.1,0,19.3-5.5,24.2-14.4"/>
			<path class="st13" d="M1078.6,1915.6h61.3c10.1,0,19.3-5.5,24.2-14.4"/>
		</g>
	</g>
</g>
</svg>
